<?xml version="1.0" standalone="no"?>
<!DOCTYPE svg PUBLIC "-//W3C//DTD SVG 20010904//EN"
 "http://www.w3.org/TR/2001/REC-SVG-20010904/DTD/svg10.dtd">
<svg version="1.0" xmlns="http://www.w3.org/2000/svg"
 width="1007.000000pt" height="328.000000pt" viewBox="0 0 1007.000000 328.000000"
 preserveAspectRatio="xMidYMid meet">

<g transform="translate(0.000000,328.000000) scale(0.100000,-0.100000)"
fill="#000000" stroke="none">
<path d="M7 3273 c-11 -10 -8 -1556 3 -1664 66 -682 555 -1283 1273 -1564 l97
-38 98 38 c673 263 1111 742 1244 1360 21 97 21 125 25 988 l4 887 -1369 0
c-753 0 -1372 -3 -1375 -7z m2700 -920 l-3 -888 -26 -105 c-109 -437 -365
-792 -765 -1059 -114 -76 -287 -166 -425 -222 l-108 -43 -107 43 c-181 72
-356 170 -500 278 -377 284 -630 683 -703 1110 -19 108 -20 166 -20 944 l0
829 1330 0 1331 0 -4 -887z"/>
<path d="M100 2960 l0 -240 1280 0 1280 0 0 240 0 240 -1280 0 -1280 0 0 -240z
m208 30 c1 -74 7 -139 12 -144 6 -6 10 -19 10 -31 0 -19 -7 -21 -70 -23 l-70
-3 0 164 c0 90 3 167 7 171 4 4 30 6 58 4 l50 -3 3 -135z m72 -10 l0 -150 25
0 25 0 0 151 c0 138 1 150 18 147 15 -3 17 -19 17 -168 l0 -165 -57 -3 -58 -3
0 171 c0 144 2 170 15 170 13 0 15 -23 15 -150z m220 -16 c12 -91 19 -168 16
-171 -12 -13 -36 8 -36 32 0 20 -5 25 -25 25 -21 0 -25 -5 -25 -30 0 -24 -4
-30 -21 -30 -18 0 -20 4 -15 38 3 20 13 91 22 157 19 145 19 145 42 145 17 0
22 -18 42 -166z m145 141 c0 -15 -8 -21 -32 -23 -32 -3 -33 -4 -33 -53 0 -48
1 -49 30 -49 23 0 30 -4 30 -20 0 -16 -7 -20 -30 -20 -30 0 -30 -1 -30 -55 l0
-55 35 0 c28 0 35 -4 35 -20 0 -18 -7 -20 -55 -20 l-55 0 0 163 c0 90 3 167 7
171 4 4 28 6 53 4 37 -3 45 -6 45 -23z m143 -65 c2 -66 0 -87 -12 -96 -13 -9
-13 -19 4 -83 l18 -72 -21 3 c-17 2 -24 16 -39 73 -22 87 -23 115 -3 115 11 0
15 12 15 50 0 43 -3 50 -20 50 -19 0 -20 -7 -20 -145 0 -138 -1 -145 -20 -145
-19 0 -20 7 -20 170 l0 171 58 -3 57 -3 3 -85z m132 65 c0 -21 -5 -25 -30 -25
-29 0 -30 -1 -30 -50 0 -47 2 -50 25 -50 18 0 25 -5 25 -20 0 -15 -7 -20 -25
-20 -24 0 -25 -3 -25 -55 0 -54 0 -55 30 -55 23 0 30 -4 30 -20 0 -17 -7 -20
-50 -20 l-50 0 0 170 0 170 50 0 c47 0 50 -2 50 -25z m80 -47 c32 -109 35
-111 38 -15 2 68 6 87 17 87 13 0 15 -28 15 -170 0 -142 -2 -170 -15 -170 -9
0 -21 25 -35 73 -34 119 -39 121 -39 20 -1 -76 -4 -93 -16 -93 -13 0 -15 26
-15 170 0 142 2 170 15 170 9 0 21 -25 35 -72z m218 15 c2 -43 0 -53 -12 -53
-11 0 -16 9 -16 29 0 17 -6 31 -16 35 -49 19 -45 -45 6 -115 39 -51 41 -57 38
-114 l-3 -60 -55 0 -55 0 -3 53 c-3 47 -1 52 17 52 17 0 21 -6 21 -36 0 -31 3
-35 23 -32 39 5 33 46 -17 113 -41 55 -45 65 -46 117 0 64 4 68 70 65 l45 -2
3 -52z m138 -46 c7 -54 14 -100 16 -103 3 -2 11 43 18 101 10 92 14 105 31
105 10 0 19 -2 19 -4 0 -11 -41 -293 -45 -313 -3 -14 -13 -23 -23 -23 -16 0
-21 18 -36 134 -9 73 -20 150 -23 171 -5 33 -4 37 13 33 16 -3 21 -18 30 -101z
m204 78 c0 -21 -5 -25 -30 -25 -29 0 -30 -1 -30 -50 0 -47 2 -50 25 -50 18 0
25 -5 25 -20 0 -15 -7 -20 -25 -20 -24 0 -25 -3 -25 -55 0 -54 0 -55 30 -55
23 0 30 -4 30 -20 0 -17 -7 -20 -50 -20 l-50 0 0 170 0 170 50 0 c47 0 50 -2
50 -25z m138 13 c7 -7 12 -43 12 -90 0 -62 -3 -79 -17 -86 -16 -9 -16 -14 0
-71 21 -76 21 -81 -1 -81 -14 0 -23 18 -40 85 -23 87 -22 105 4 105 10 0 14
13 14 50 0 47 -2 50 -25 50 l-25 0 0 -145 c0 -122 -2 -145 -15 -145 -13 0 -15
26 -15 170 l0 170 48 0 c26 0 53 -5 60 -12z m82 -158 c0 -163 -1 -170 -20
-170 -19 0 -20 7 -20 170 0 163 1 170 20 170 19 0 20 -7 20 -170z m130 145 c0
-18 -5 -25 -20 -25 -19 0 -20 -7 -20 -145 0 -138 -1 -145 -20 -145 -19 0 -20
7 -20 145 0 120 -3 145 -14 145 -19 0 -29 17 -22 35 4 11 22 15 61 15 52 0 55
-1 55 -25z m100 17 c0 -4 9 -70 20 -147 11 -77 20 -150 20 -162 0 -34 -27 -28
-35 7 -5 23 -12 30 -31 30 -20 0 -24 -5 -24 -30 0 -24 -4 -30 -21 -30 -17 0
-20 5 -15 28 3 15 12 79 21 142 23 166 24 170 46 170 10 0 19 -4 19 -8z m170
-17 c0 -18 -5 -25 -20 -25 -19 0 -20 -7 -20 -145 0 -122 -2 -145 -15 -145 -13
0 -15 23 -15 145 0 137 -1 145 -19 145 -23 0 -35 15 -27 35 4 11 22 15 61 15
52 0 55 -1 55 -25z m120 0 c0 -21 -5 -25 -30 -25 -29 0 -30 -1 -30 -50 0 -49
1 -50 31 -50 24 0 30 -4 27 -17 -2 -11 -14 -19 -31 -21 -26 -3 -27 -6 -27 -58
l0 -54 34 0 c29 0 33 -3 29 -20 -4 -17 -14 -20 -54 -20 l-49 0 0 163 c0 90 3
167 7 170 3 4 26 7 50 7 39 0 43 -2 43 -25z m71 -10 c4 -17 13 -57 20 -90 l13
-60 21 90 c15 66 25 91 38 93 15 3 17 -12 17 -167 0 -164 -1 -171 -20 -171
-18 0 -20 7 -21 73 l-1 72 -12 -54 c-15 -74 -33 -76 -41 -6 -11 82 -25 77 -25
-9 0 -61 -3 -76 -15 -76 -13 0 -15 26 -15 171 0 155 2 170 17 167 9 -2 20 -17
24 -33z"/>
<path d="M222 2958 c3 -119 4 -123 26 -126 22 -3 30 12 12 23 -5 3 -10 17 -10
31 0 14 4 22 10 19 6 -4 10 27 10 84 0 91 0 91 -25 91 l-26 0 3 -122z"/>
<path d="M551 3009 c0 -9 -4 -37 -7 -63 -6 -38 -4 -46 10 -46 12 0 16 9 15 33
-2 37 -16 100 -18 76z"/>
<path d="M2080 2980 c0 -19 -3 -45 -6 -57 -5 -18 -2 -23 12 -23 17 0 19 6 16
48 -5 56 -22 82 -22 32z"/>
<path d="M102 2068 l4 -583 31 -115 c43 -160 85 -269 146 -382 208 -387 557
-685 1013 -867 l81 -32 94 37 c544 218 939 602 1103 1073 79 225 79 228 83
874 l4 577 -1281 0 -1281 0 3 -582z m2522 554 c2 -4 -63 -57 -145 -117 l-149
-109 30 -31 c33 -34 39 -50 15 -41 -12 4 -14 0 -9 -19 5 -21 2 -25 -14 -25
-18 0 -20 -5 -15 -35 3 -19 2 -35 -3 -35 -16 0 -35 -57 -28 -85 6 -24 5 -27
-15 -20 -33 10 -63 -3 -56 -26 5 -14 0 -21 -19 -29 -14 -5 -42 -31 -62 -59
-20 -27 -59 -66 -87 -87 l-50 -39 42 -8 c23 -5 39 -12 36 -16 -8 -13 -93 -34
-115 -28 -17 4 -20 0 -20 -26 0 -35 -31 -110 -50 -122 -16 -10 87 -115 112
-115 10 0 30 -13 45 -30 29 -33 54 -38 73 -15 18 21 73 19 103 -5 14 -11 35
-36 47 -56 20 -32 21 -39 10 -80 -8 -29 -17 -43 -26 -40 -7 3 -15 -2 -19 -11
-4 -12 -9 -13 -17 -5 -8 8 -18 5 -38 -10 -16 -11 -32 -18 -38 -14 -5 3 -17 -3
-27 -14 -25 -27 -38 -25 -31 5 6 24 4 25 -33 25 -37 0 -44 4 -82 55 -49 65
-79 86 -79 56 0 -48 -25 -66 -50 -36 -9 10 -24 13 -55 8 -41 -5 -44 -4 -69 33
-14 21 -26 33 -26 26 0 -18 19 -53 42 -79 26 -28 14 -46 -27 -41 l-32 4 20
-33 c10 -18 23 -33 28 -33 17 0 32 -44 30 -93 0 -39 -9 -65 -40 -117 -54 -91
-58 -110 -27 -139 26 -24 23 -24 129 -5 30 5 37 1 80 -45 55 -58 61 -94 24
-137 l-24 -27 -6 31 -6 32 -36 -17 c-31 -15 -46 -15 -111 -6 -50 7 -83 18 -97
31 -12 11 -47 34 -77 52 -30 17 -61 39 -67 48 -21 26 -15 66 13 91 23 20 25
27 19 64 -14 87 -75 145 -139 133 -40 -8 -81 -45 -90 -81 -12 -48 -131 -155
-248 -223 -58 -34 -114 -72 -122 -84 -25 -35 -20 -87 14 -137 23 -34 30 -55
30 -92 0 -54 -13 -70 -31 -37 -11 21 -12 21 -31 -15 -22 -43 -38 -40 -38 6
l-1 32 -19 -35 -18 -35 -11 27 c-7 18 -18 29 -33 29 -13 1 -31 2 -40 3 -10 1
-27 18 -38 39 l-20 38 31 92 c17 50 45 121 62 157 31 63 35 66 111 104 61 30
81 45 91 70 16 37 45 215 36 220 -3 2 -22 7 -41 11 -19 4 -61 21 -92 37 -33
17 -62 27 -69 22 -7 -4 -123 -88 -257 -186 -134 -98 -246 -178 -247 -176 -20
19 -111 229 -139 318 -68 213 -68 219 -73 817 l-5 543 1034 3 c568 1 1131 3
1250 5 119 1 219 -2 222 -6z"/>
<path d="M2067 2204 c-72 -54 -86 -68 -76 -80 9 -11 7 -14 -16 -14 -23 0 -25
-2 -15 -15 15 -18 43 -5 137 62 72 50 92 78 71 98 -11 11 -28 3 -101 -51z"/>
<path d="M1153 1537 c-201 -148 -206 -155 -120 -156 31 -1 43 5 74 40 20 22
68 59 107 81 89 52 115 75 132 115 15 36 18 63 7 62 -5 0 -94 -64 -200 -142z"/>
<path d="M7580 2927 c0 -90 1 -93 36 -142 85 -119 163 -313 200 -500 24 -120
24 -337 0 -460 -36 -184 -108 -366 -197 -497 -39 -58 -39 -58 -39 -158 l0
-100 243 0 244 0 5 484 c4 266 4 704 0 975 l-5 491 -244 0 -243 0 0 -93z"/>
</g>
</svg>
