<?xml version="1.0" standalone="no"?>
<!DOCTYPE svg PUBLIC "-//W3C//DTD SVG 20010904//EN"
 "http://www.w3.org/TR/2001/REC-SVG-20010904/DTD/svg10.dtd">
<svg version="1.0" xmlns="http://www.w3.org/2000/svg"
 width="394.000000pt" height="128.000000pt" viewBox="0 0 394.000000 128.000000"
 preserveAspectRatio="xMidYMid meet">

<g transform="translate(0.000000,128.000000) scale(0.100000,-0.100000)"
fill="#000000" stroke="none">
<path d="M3 928 c4 -389 6 -402 71 -533 46 -92 110 -171 193 -240 76 -62 230
-145 272 -145 33 0 152 56 228 108 150 102 259 256 292 410 7 33 11 182 11
402 l0 350 -536 0 -536 0 5 -352z m1057 -2 c0 -380 -5 -416 -65 -535 -45 -91
-121 -181 -204 -242 -74 -56 -216 -129 -249 -129 -58 0 -234 104 -319 189 -62
61 -99 113 -142 200 -55 108 -61 159 -61 527 l0 331 520 0 520 1 0 -342z"/>
<path d="M40 1155 l0 -95 500 0 500 0 0 95 0 95 -500 0 -500 0 0 -95z m80 16
c0 -27 3 -56 6 -65 5 -13 -1 -16 -25 -16 l-31 0 0 65 c0 63 1 65 25 65 23 0
25 -3 25 -49z m30 -6 c0 -73 18 -71 23 3 l3 57 2 -67 c2 -61 0 -68 -17 -68
-11 0 -22 8 -24 18 -9 33 -7 112 3 112 5 0 10 -25 10 -55z m80 36 c0 -10 3
-40 6 -67 4 -37 3 -45 -5 -34 -10 13 -12 13 -20 0 -17 -26 -21 -5 -10 58 10
58 29 86 29 43z m60 9 c0 -5 -4 -10 -10 -10 -15 0 -12 -40 3 -41 10 0 10 -2 0
-6 -15 -6 -17 -43 -3 -43 6 0 10 -4 10 -10 0 -5 -9 -10 -20 -10 -18 0 -20 7
-20 65 0 58 2 65 20 65 11 0 20 -4 20 -10z m58 -55 c-1 -36 -6 -65 -10 -65 -4
0 -9 10 -9 23 l-2 22 -4 -22 c-9 -47 -23 -21 -23 42 0 62 1 65 25 65 24 0 24
-2 23 -65z m52 55 c0 -5 -6 -10 -14 -10 -18 0 -14 -29 5 -41 10 -6 10 -9 2 -9
-7 0 -13 -9 -13 -20 0 -11 5 -20 10 -20 6 0 10 -4 10 -10 0 -5 -9 -10 -20 -10
-18 0 -20 7 -20 65 0 58 2 65 20 65 11 0 20 -4 20 -10z m30 -16 c0 -8 4 -14 9
-14 5 0 7 9 4 20 -3 11 0 20 6 20 7 0 11 -24 11 -65 0 -70 -13 -86 -25 -32
l-8 32 -7 -35 c-6 -29 -8 -23 -9 33 -1 43 3 66 9 62 6 -3 10 -13 10 -21z m90
6 c0 -22 -15 -27 -23 -7 -4 8 -6 7 -6 -4 -1 -8 6 -24 14 -35 8 -10 15 -29 15
-41 0 -18 -6 -23 -25 -23 -18 0 -25 5 -25 20 0 22 15 27 23 8 4 -9 6 -8 6 2 0
8 -6 24 -14 34 -8 11 -15 30 -15 43 0 18 6 23 25 23 18 0 25 -5 25 -20z m51
-17 l1 -38 8 33 c12 53 23 52 16 -2 -3 -27 -6 -57 -6 -67 0 -29 -18 -22 -24 9
-15 82 -16 102 -6 102 5 0 10 -17 11 -37z m79 27 c0 -5 -6 -10 -14 -10 -9 0
-12 -7 -9 -20 3 -11 10 -20 17 -20 6 0 5 -4 -3 -9 -19 -12 -23 -41 -5 -41 8 0
14 -4 14 -10 0 -5 -9 -10 -20 -10 -18 0 -20 7 -20 65 0 58 2 65 20 65 11 0 20
-4 20 -10z m57 -55 c-1 -36 -5 -65 -9 -65 -5 0 -8 8 -8 18 0 9 -5 24 -11 32
-8 11 -9 7 -5 -17 3 -19 1 -33 -4 -33 -6 0 -10 29 -10 65 0 63 1 65 25 65 24
0 25 -2 22 -65z m20 -32 c-2 -21 -4 -6 -4 32 0 39 2 55 4 38 2 -18 2 -50 0
-70z m63 87 c0 -5 -4 -10 -10 -10 -5 0 -11 -26 -12 -57 l-2 -58 -3 58 c-2 31
-8 57 -13 57 -6 0 -10 5 -10 10 0 6 11 10 25 10 14 0 25 -4 25 -10z m40 -9 c0
-10 3 -40 6 -67 4 -38 3 -46 -6 -34 -9 11 -13 12 -17 3 -9 -24 -25 -13 -19 15
2 15 7 44 11 65 6 38 25 52 25 18z m52 -43 c-2 -35 -6 -65 -8 -67 -8 -9 -12 6
-16 67 -4 52 -2 62 12 62 14 0 16 -10 12 -62z m58 52 c0 -5 -4 -10 -10 -10
-15 0 -12 -40 3 -41 10 0 10 -2 0 -6 -15 -6 -17 -43 -3 -43 6 0 10 -4 10 -10
0 -5 -9 -10 -20 -10 -18 0 -20 7 -20 65 0 58 2 65 20 65 11 0 20 -4 20 -10z
m30 -15 c0 -14 5 -25 10 -25 6 0 10 11 10 25 0 14 5 25 10 25 6 0 10 -28 10
-65 0 -39 -4 -65 -11 -65 -6 0 -8 9 -4 23 7 22 7 22 -9 2 -15 -20 -15 -20 -17
5 -1 23 -2 23 -9 -5 -6 -23 -8 -15 -9 38 -1 39 3 67 9 67 6 0 10 -11 10 -25z"/>
<path d="M90 1153 c0 -35 3 -44 10 -33 13 20 13 80 0 80 -5 0 -10 -21 -10 -47z"/>
<path d="M211 1144 c0 -11 3 -14 6 -6 3 7 2 16 -1 19 -3 4 -6 -2 -5 -13z"/>
<path d="M322 1180 c0 -14 2 -19 5 -12 2 6 2 18 0 25 -3 6 -5 1 -5 -13z"/>
<path d="M674 1185 c4 -24 16 -30 16 -7 0 12 -4 22 -9 22 -5 0 -8 -7 -7 -15z"/>
<path d="M811 1144 c0 -11 3 -14 6 -6 3 7 2 16 -1 19 -3 4 -6 -2 -5 -13z"/>
<path d="M328 1032 l-288 -2 0 -221 c0 -244 8 -293 62 -404 41 -84 104 -163
185 -229 68 -57 213 -136 249 -136 32 0 180 76 244 125 83 64 154 147 194 229
57 115 66 172 66 422 l0 221 -212 -1 c-117 -1 -342 -2 -500 -4z m644 -56 c-51
-36 -58 -44 -48 -60 8 -14 8 -20 -2 -23 -6 -3 -9 -9 -6 -14 3 -6 0 -16 -6 -24
-6 -8 -9 -19 -5 -25 3 -6 -3 -10 -16 -10 -12 0 -20 -3 -17 -6 4 -3 -11 -22
-32 -42 -30 -27 -36 -39 -28 -49 8 -10 6 -13 -6 -13 -9 0 -19 1 -22 3 -3 1
-12 -14 -20 -33 -15 -35 -15 -35 21 -66 26 -21 44 -29 61 -26 31 6 54 -14 54
-44 0 -18 -9 -28 -37 -39 -24 -10 -39 -12 -41 -5 -2 5 -9 10 -15 10 -6 0 -21
10 -34 22 -13 12 -23 16 -23 10 0 -7 -13 -9 -35 -5 -30 5 -34 3 -29 -11 3 -9
1 -16 -5 -16 -7 0 -5 -9 5 -25 15 -23 15 -27 -6 -69 -25 -52 -19 -70 20 -63
32 7 77 -32 67 -57 -8 -21 -102 -14 -126 8 -10 9 -23 16 -29 16 -19 0 -31 32
-19 51 16 25 -3 73 -29 77 -15 2 -31 -9 -55 -39 -18 -23 -57 -57 -87 -76 -58
-37 -57 -34 -37 -114 6 -21 3 -27 -14 -32 -12 -3 -21 0 -22 6 0 9 -2 9 -5 1
-8 -18 -54 7 -60 32 -8 33 34 123 66 139 36 19 46 33 53 76 5 35 4 37 -35 52
l-40 16 -94 -69 c-51 -39 -96 -70 -100 -70 -10 0 -62 125 -73 178 -6 29 -11
146 -11 262 l0 210 483 2 c265 2 486 1 490 0 5 -2 -18 -23 -51 -46z"/>
<path d="M801 851 c-43 -40 -39 -46 9 -15 22 15 40 31 40 35 0 16 -18 9 -49
-20z"/>
<path d="M451 597 c-50 -35 -68 -53 -56 -55 9 -2 27 5 38 16 12 10 36 27 54
38 29 16 49 41 40 50 -2 2 -36 -20 -76 -49z"/>
<path d="M2050 799 l0 -380 358 3 c270 3 365 7 392 18 137 53 215 185 215 360
-1 197 -96 337 -250 368 -37 8 -177 12 -387 12 l-328 0 0 -381z m704 187 c93
-70 110 -245 34 -341 -45 -58 -80 -65 -325 -65 l-223 0 0 221 0 220 238 -3
239 -3 37 -29z"/>
<path d="M2970 1140 c0 -25 9 -52 24 -75 31 -44 62 -142 71 -216 9 -86 -10
-183 -55 -276 -24 -49 -40 -95 -40 -117 l0 -36 95 0 95 0 0 140 0 140 268 -2
267 -3 -4 -77 c-1 -43 0 -105 4 -138 l7 -60 91 0 92 0 0 375 0 375 -96 0 -96
0 -1 -122 c0 -68 -1 -131 -1 -140 -1 -17 -21 -18 -266 -18 l-265 0 0 145 0
145 -95 0 -95 0 0 -40z"/>
<path d="M1170 835 c0 -364 2 -379 55 -403 41 -19 694 -17 740 2 l35 15 0 360
0 361 -85 0 -85 0 0 -295 0 -295 -235 0 -235 0 0 295 0 295 -95 0 -95 0 0
-335z"/>
<path d="M1150 235 l0 -45 55 0 55 0 0 45 c0 25 -4 45 -10 45 -5 0 -10 -16
-10 -35 0 -33 -2 -35 -35 -35 -33 0 -35 2 -35 35 0 19 -4 35 -10 35 -5 0 -10
-20 -10 -45z"/>
<path d="M1290 235 c0 -25 5 -45 10 -45 6 0 10 14 10 31 l0 30 37 -30 c52 -43
63 -40 63 14 0 25 -4 45 -10 45 -5 0 -10 -11 -10 -25 0 -14 -4 -25 -9 -25 -5
0 -23 11 -39 25 -42 36 -52 32 -52 -20z"/>
<path d="M1440 235 c0 -33 4 -45 15 -45 11 0 15 12 15 45 0 33 -4 45 -15 45
-11 0 -15 -12 -15 -45z"/>
<path d="M1527 235 c13 -25 30 -45 36 -45 18 1 70 90 53 90 -8 0 -23 -14 -34
-31 l-19 -31 -19 31 c-30 50 -46 37 -17 -14z"/>
<path d="M1660 235 l0 -45 51 0 c31 0 48 4 44 10 -3 6 -22 10 -41 10 -38 0
-46 16 -11 23 l22 4 -22 2 c-37 2 -26 21 11 21 19 0 38 5 41 10 4 6 -13 10
-44 10 l-51 0 0 -45z"/>
<path d="M1780 235 c0 -25 5 -45 10 -45 6 0 10 6 10 14 0 26 21 29 44 7 28
-26 56 -30 35 -4 -11 13 -11 17 -1 20 6 3 12 16 12 29 0 22 -4 24 -55 24 l-55
0 0 -45z m78 18 c-10 -2 -26 -2 -35 0 -10 3 -2 5 17 5 19 0 27 -2 18 -5z"/>
<path d="M1930 255 c0 -22 4 -25 39 -25 22 0 43 -4 46 -10 4 -6 -12 -10 -39
-10 -25 0 -46 -4 -46 -10 0 -5 25 -10 55 -10 52 0 55 1 55 25 0 23 -4 25 -45
25 -25 0 -45 5 -45 10 0 6 20 10 45 10 25 0 45 5 45 10 0 6 -25 10 -55 10 -52
0 -55 -1 -55 -25z"/>
<path d="M2070 235 c0 -25 5 -45 10 -45 6 0 10 20 10 45 0 25 -4 45 -10 45 -5
0 -10 -20 -10 -45z"/>
<path d="M2130 234 l0 -45 51 3 c57 3 74 23 58 66 -7 19 -16 22 -59 22 l-50 0
0 -46z m93 14 c8 -25 -6 -38 -39 -38 -30 0 -34 3 -34 25 0 22 4 25 34 25 19 0
36 -6 39 -12z"/>
<path d="M2306 238 l-26 -43 26 -3 c31 -4 44 6 24 18 -13 8 -13 11 2 26 15 15
17 14 32 -15 15 -27 36 -42 36 -25 0 17 -45 84 -56 84 -7 0 -24 -19 -38 -42z"/>
<path d="M2440 234 l0 -45 53 3 c51 3 52 4 55 37 4 41 -8 51 -65 51 l-43 0 0
-46z m90 1 c0 -22 -4 -25 -35 -25 -31 0 -35 3 -35 25 0 22 4 25 35 25 31 0 35
-3 35 -25z"/>
<path d="M2635 235 l0 -46 55 3 c55 3 55 3 58 37 4 41 -8 51 -68 51 l-45 0 0
-45z m95 0 c0 -22 -4 -25 -35 -25 -31 0 -35 3 -35 25 0 22 4 25 35 25 31 0 35
-3 35 -25z"/>
<path d="M2780 235 l0 -45 50 0 c28 0 50 5 50 10 0 6 -16 10 -35 10 -39 0 -48
16 -12 23 l22 4 -22 2 c-37 2 -26 21 12 21 19 0 35 5 35 10 0 6 -22 10 -50 10
l-50 0 0 -45z"/>
<path d="M2960 235 c0 -25 5 -45 10 -45 6 0 10 7 10 15 0 10 11 15 35 15 24 0
35 -5 35 -15 0 -8 5 -15 10 -15 6 0 10 20 10 45 0 25 -4 45 -10 45 -5 0 -10
-9 -10 -20 0 -16 -7 -20 -31 -20 -22 0 -32 5 -36 20 -9 36 -23 21 -23 -25z"/>
<path d="M3105 238 l2 -43 52 -3 51 -3 0 45 c0 26 -4 46 -10 46 -5 0 -10 -16
-10 -35 0 -32 -2 -35 -30 -35 -28 0 -30 3 -30 35 0 23 -5 35 -14 35 -10 0 -13
-12 -11 -42z"/>
<path d="M3273 240 c-13 -21 -23 -41 -23 -44 0 -4 14 -6 30 -6 29 0 42 14 19
22 -10 3 -2 38 10 38 3 0 14 -14 23 -30 27 -47 40 -35 16 15 -12 25 -29 45
-37 45 -9 0 -26 -18 -38 -40z"/>
<path d="M3400 235 c0 -25 5 -45 10 -45 6 0 10 11 10 25 0 14 3 25 7 25 3 0
21 -11 39 -25 46 -35 54 -32 54 20 0 25 -4 45 -10 45 -5 0 -10 -14 -10 -31 l0
-31 -39 31 c-21 17 -44 31 -50 31 -6 0 -11 -19 -11 -45z"/>
<path d="M3555 238 l0 -43 53 -3 52 -3 0 45 c0 26 -4 46 -10 46 -5 0 -10 -16
-10 -35 0 -32 -2 -35 -30 -35 -28 0 -30 3 -30 35 0 22 -5 35 -13 35 -8 0 -12
-15 -12 -42z"/>
<path d="M3690 235 l0 -45 55 0 c41 0 55 4 55 14 0 8 -4 18 -10 21 -5 3 -10 1
-10 -4 0 -6 -16 -11 -35 -11 -31 0 -35 3 -35 25 0 22 4 25 35 25 19 0 35 -4
35 -10 0 -5 5 -10 10 -10 6 0 10 9 10 20 0 18 -7 20 -55 20 l-55 0 0 -45z"/>
<path d="M3830 235 l0 -46 53 3 52 3 0 40 0 40 -52 3 -53 3 0 -46z m86 -2 c3
-20 0 -23 -31 -23 -31 0 -35 3 -35 26 0 22 4 25 32 22 23 -2 32 -8 34 -25z"/>
</g>
</svg>
